<svg xmlns="http://www.w3.org/2000/svg" width="29" height="12"><path d="M0 11.168h.512a.649.649 0 0 0 .656-.656v-8.24l5.648 8.608a.585.585 0 0 0 .496.288h.592V0h-.512a.649.649 0 0 0-.656.656v8.208L1.088.288A.585.585 0 0 0 .592 0H0v11.168zm15.44 0v-.496a.649.649 0 0 0-.656-.656H10.32V6.032h4.672v-.496a.649.649 0 0 0-.656-.656H10.32V1.216h5.152V.72a.649.649 0 0 0-.656-.656H9.168v11.104h6.272zm3.456 0h1.024l2.528-9.456 2.528 9.456H26L28.992.064h-.736a.583.583 0 0 0-.576.448l-2.192 8.16-2.176-8.16a.6.6 0 0 0-.592-.448h-.544a.583.583 0 0 0-.576.448l-2.192 8.16-2.176-8.16a.6.6 0 0 0-.592-.448h-.72l2.976 11.104z"/></svg>